<?xml version="1.0" encoding="UTF-8" standalone="no"?>
<!-- Created with Inkscape (http://www.inkscape.org/) -->

<svg
   xmlns:dc="http://purl.org/dc/elements/1.1/"
   xmlns:cc="http://creativecommons.org/ns#"
   xmlns:rdf="http://www.w3.org/1999/02/22-rdf-syntax-ns#"
   xmlns:svg="http://www.w3.org/2000/svg"
   xmlns="http://www.w3.org/2000/svg"
   xmlns:sodipodi="http://sodipodi.sourceforge.net/DTD/sodipodi-0.dtd"
   xmlns:inkscape="http://www.inkscape.org/namespaces/inkscape"
   width="151mm"
   height="41mm"
   viewBox="0 0 151 41"
   version="1.1"
   id="svg8"
   inkscape:version="0.92.3 (2405546, 2018-03-11)"
   sodipodi:docname="nav-image.svg">
  <defs
     id="defs2" />
  <sodipodi:namedview
     id="base"
     pagecolor="#ffffff"
     bordercolor="#666666"
     borderopacity="1.0"
     inkscape:pageopacity="0.0"
     inkscape:pageshadow="2"
     inkscape:zoom="1"
     inkscape:cx="246.16337"
     inkscape:cy="24.505309"
     inkscape:document-units="mm"
     inkscape:current-layer="layer1"
     showgrid="false"
     inkscape:window-width="1600"
     inkscape:window-height="837"
     inkscape:window-x="-8"
     inkscape:window-y="-8"
     inkscape:window-maximized="1" />
  <metadata
     id="metadata5">
    <rdf:RDF>
      <cc:Work
         rdf:about="">
        <dc:format>image/svg+xml</dc:format>
        <dc:type
           rdf:resource="http://purl.org/dc/dcmitype/StillImage" />
        <dc:title></dc:title>
      </cc:Work>
    </rdf:RDF>
  </metadata>
  <g
     inkscape:label="Layer 1"
     inkscape:groupmode="layer"
     id="layer1"
     transform="translate(0,-256)">
    <g
       id="g38"
       transform="matrix(0.01406083,0,0,-0.01406083,48.8582,303.13108)"
       style="fill:#000000;stroke:none">
      <path
         id="path30"
         d="m 1354,3310 c -7,-7 -8,-33 -2,-77 4,-37 7,-67 5,-68 -1,-1 -32,-14 -69,-29 -37,-16 -93,-43 -124,-62 -31,-19 -58,-34 -59,-34 -2,0 -8,14 -14,30 -18,54 -48,31 -33,-25 8,-28 3,-36 -80,-123 -107,-113 -167,-211 -215,-357 -36,-108 -37,-113 -37,-273 -1,-140 -3,-161 -16,-156 -8,3 -45,8 -81,11 -116,10 -242,-43 -326,-135 -13,-15 -38,-54 -56,-87 -30,-57 -32,-66 -32,-170 0,-101 2,-115 29,-173 73,-159 272,-261 434,-224 l 42,10 v -90 c 0,-324 203,-601 520,-708 93,-31 292,-39 393,-16 227,54 435,231 522,444 55,135 69,294 39,439 l -15,75 90,85 c 140,130 228,276 277,459 29,106 27,351 -4,459 -48,167 -154,341 -275,453 -63,57 -176,129 -256,163 -37,15 -67,35 -69,43 -4,16 -42,23 -42,7 0,-5 -15,-5 -32,-2 -33,7 -33,7 -33,66 0,46 -3,60 -15,60 -8,0 -16,-7 -17,-15 -9,-68 -16,-90 -28,-90 -8,0 -15,13 -17,32 -4,46 -38,53 -38,9 0,-29 -3,-31 -35,-31 h -35 v 56 c 0,47 -3,55 -17,52 -14,-2 -19,-15 -21,-56 -3,-43 -6,-52 -21,-52 -10,0 -21,9 -24,20 -7,28 -37,26 -37,-3 0,-20 -8,-25 -61,-36 -72,-14 -79,-10 -79,55 0,46 -19,81 -36,64 z m 568,-190 c 307,-103 533,-360 593,-675 63,-327 -61,-653 -332,-876 l -42,-34 14,-90 c 38,-242 -2,-423 -134,-597 C 1883,666 1659,566 1415,579 l -40,2 40,16 c 139,56 254,190 301,348 21,71 23,230 4,248 -10,10 -11,-3 -6,-59 22,-230 -128,-464 -340,-531 -51,-16 -57,-16 -111,2 l -58,18 70,12 c 368,64 514,504 253,766 -88,89 -188,129 -318,129 -196,0 -354,-109 -425,-291 l -24,-64 -1,77 c 0,75 1,77 44,135 46,61 113,117 182,151 99,50 245,66 340,37 55,-17 93,-20 78,-6 -16,15 -138,41 -195,41 -141,-1 -282,-64 -384,-171 -49,-53 -65,-64 -65,-49 0,18 -4,20 -42,13 -24,-5 -79,-8 -123,-8 -65,1 -91,6 -135,27 -149,70 -229,217 -208,380 26,200 228,342 427,299 84,-18 83,-19 85,175 3,191 13,239 77,373 117,246 323,418 582,487 83,22 107,24 247,21 143,-4 162,-7 252,-37 z M 1313,1329 c 49,-94 87,-172 85,-173 -1,-2 -23,-6 -48,-8 l -46,-5 -87,168 c -49,93 -85,173 -82,179 3,5 25,10 48,10 h 42 z m 76,128 c 41,-20 47,-28 68,-87 56,-159 64,-183 56,-190 -4,-5 -26,-11 -49,-15 l -40,-6 -82,163 c -45,90 -82,166 -82,169 0,11 82,-11 129,-34 z m -197,-147 c 48,-93 84,-171 80,-173 -4,-3 -35,-7 -70,-9 l -62,-3 -55,120 c -30,66 -62,132 -70,147 -8,14 -15,33 -15,41 0,15 60,46 90,46 9,0 48,-62 102,-169 z m -144,-42 72,-153 -28,-6 c -15,-4 -43,-7 -63,-8 l -37,-1 -45,133 -46,132 30,28 c 16,15 33,27 37,27 5,0 41,-69 80,-152 z m -113,-58 41,-118 -30,-6 c -16,-4 -33,-3 -36,1 -4,5 -19,52 -34,106 -26,93 -27,100 -11,123 9,14 20,23 23,19 4,-4 25,-60 47,-125 z m 615,-102 c 8,-24 24,-68 36,-99 19,-51 20,-58 7,-92 -9,-20 -18,-37 -22,-37 -6,0 -131,243 -131,254 0,6 36,13 71,15 22,1 28,-5 39,-41 z m -64,-119 71,-141 -30,-34 c -36,-42 -25,-54 -131,150 -83,161 -83,166 -16,166 h 35 z m -153,49 c 25,-46 67,-127 95,-181 l 51,-98 -46,-29 c -55,-35 -82,-45 -93,-33 -12,13 -183,393 -179,397 2,1 31,7 64,13 33,6 61,11 62,12 1,0 22,-36 46,-81 z M 1206,925 c 41,-88 83,-178 94,-200 10,-22 16,-43 11,-48 -11,-11 -161,-12 -170,-1 -7,8 -125,349 -133,384 -2,11 10,17 47,21 28,3 56,6 64,5 7,-1 47,-73 87,-161 z m -154,-58 c 37,-108 65,-197 62,-197 -10,0 -61,35 -113,79 -62,52 -130,140 -173,225 -34,66 -28,78 31,74 33,-3 36,-6 53,-63 10,-33 25,-90 34,-127 9,-38 21,-68 25,-68 15,0 10,29 -21,140 -17,58 -30,110 -30,117 0,11 33,22 54,18 6,0 40,-90 78,-198 z"
         inkscape:connector-curvature="0" />
      <path
         id="path32"
         d="m 1310,2751 c -159,-49 -270,-224 -240,-379 22,-120 84,-203 188,-254 59,-29 76,-33 147,-33 65,1 91,6 136,27 80,37 134,89 170,166 87,182 -5,402 -194,466 -49,17 -163,20 -207,7 z m 235,-43 c 61,-32 130,-103 157,-164 48,-110 13,-270 -79,-354 -66,-61 -123,-83 -218,-83 -67,0 -89,4 -137,28 -160,77 -229,279 -148,435 35,67 113,133 182,156 67,22 182,13 243,-18 z"
         inkscape:connector-curvature="0" />
      <path
         id="path34"
         d="m 1303,2712 c -68,-24 -113,-60 -151,-119 -133,-209 8,-473 254,-473 81,0 143,23 200,73 158,139 133,385 -49,495 -72,43 -173,53 -254,24 z m 231,-46 c 101,-50 153,-148 144,-271 -12,-143 -127,-249 -273,-248 -255,0 -371,312 -180,481 88,77 201,91 309,38 z"
         inkscape:connector-curvature="0" />
      <path
         id="path36"
         d="m 1313,2664 c -48,-17 -114,-77 -139,-126 -9,-18 -19,-62 -22,-98 -3,-53 0,-76 18,-118 25,-57 83,-116 139,-139 51,-22 148,-20 202,4 51,23 112,86 134,139 19,47 19,151 0,197 -52,125 -200,187 -332,141 z m 161,-36 c 51,-16 119,-82 136,-133 7,-20 10,-63 8,-95 -9,-129 -129,-218 -256,-189 -177,39 -233,264 -94,379 59,49 128,61 206,38 z"
         inkscape:connector-curvature="0" />
    </g>
  </g>
</svg>
